<svg width="494.42747802734374px" height="211.419921875px" xmlns="http://www.w3.org/2000/svg" viewBox="2.7862609863281307 -30.7099609375 494.42747802734374 211.419921875" style="background: none;" preserveAspectRatio="xMidYMid"><defs><linearGradient id="editing-gradient-gradient" x1="0" x2="1" y1="0.5" y2="0.5" gradientUnits="objectBoundingBox"><stop offset="0" stop-color="#e7008a"></stop><stop offset="1" stop-color="#ff003a"></stop></linearGradient></defs><g><g transform="translate(78.2850022315979, 109.58000183105469)"><path d="M44.74-43.89L44.74-47.31L44.74-47.31Q44.74-50.54 43.46-53.01L43.46-53.01L43.46-53.01Q42.18-55.48 39.99-57.09L39.99-57.09L39.99-57.09Q37.81-58.71 34.96-59.56L34.96-59.56L34.96-59.56Q32.11-60.42 28.98-60.42L28.98-60.42L28.98-60.42Q26.22-60.42 23.75-59.71L23.75-59.71L23.75-59.71Q21.28-58.99 19.33-57.66L19.33-57.66L19.33-57.66Q17.39-56.34 16.25-54.39L16.25-54.39L16.25-54.39Q15.11-52.44 15.11-49.88L15.11-49.88L15.11-49.30L15.11-49.30Q15.11-46.55 16.25-44.60L16.25-44.60L16.25-44.60Q17.39-42.66 19.62-41.28L19.62-41.28L19.62-41.28Q21.85-39.90 25.18-39.00L25.18-39.00L25.18-39.00Q28.50-38.09 32.97-37.43L32.97-37.43L32.97-37.43Q43.41-35.81 48.36-31.30L48.36-31.30L48.36-31.30Q53.30-26.79 53.30-19.19L53.30-19.19L53.30-18.05L53.30-18.05Q53.30-13.78 51.82-10.21L51.82-10.21L51.82-10.21Q50.35-6.65 47.45-4.08L47.45-4.08L47.45-4.08Q44.55-1.52 40.28-0.10L40.28-0.10L40.28-0.10Q36.01 1.33 30.40 1.33L30.40 1.33L30.40 1.33Q24.04 1.33 19.14-0.52L19.14-0.52L19.14-0.52Q14.25-2.38 10.97-5.65L10.97-5.65L10.97-5.65Q7.70-8.93 5.99-13.35L5.99-13.35L5.99-13.35Q4.28-17.77 4.28-22.99L4.28-22.99L4.28-25.84L12.26-25.84L12.26-23.56L12.26-23.56Q12.26-14.82 17.05-10.45L17.05-10.45L17.05-10.45Q21.85-6.08 30.40-6.08L30.40-6.08L30.40-6.08Q37.81-6.08 41.56-9.36L41.56-9.36L41.56-9.36Q45.31-12.63 45.31-18.05L45.31-18.05L45.31-18.62L45.31-18.62Q45.31-23.84 41.47-26.60L41.47-26.60L41.47-26.60Q37.62-29.36 28.98-30.59L28.98-30.59L28.98-30.59Q23.94-31.25 19.90-32.63L19.90-32.63L19.90-32.63Q15.87-34.01 13.02-36.24L13.02-36.24L13.02-36.24Q10.17-38.48 8.64-41.61L8.64-41.61L8.64-41.61Q7.13-44.74 7.13-49.02L7.13-49.02L7.13-50.16L7.13-50.16Q7.13-54.05 8.74-57.29L8.74-57.29L8.74-57.29Q10.36-60.52 13.25-62.89L13.25-62.89L13.25-62.89Q16.15-65.27 20.19-66.55L20.19-66.55L20.19-66.55Q24.23-67.83 29.07-67.83L29.07-67.83L29.07-67.83Q34.67-67.83 39.09-66.22L39.09-66.22L39.09-66.22Q43.51-64.60 46.55-61.89L46.55-61.89L46.55-61.89Q49.59-59.19 51.16-55.53L51.16-55.53L51.16-55.53Q52.73-51.87 52.73-47.88L52.73-47.88L52.73-43.89L44.74-43.89ZM64.79-40.28L64.79-47.12L79.61-47.12L79.61-66.50L87.02-66.50L87.02-47.12L105.26-47.12L105.26-40.28L87.02-40.28L87.02-9.69L87.02-9.69Q87.02-6.84 89.59-6.84L89.59-6.84L102.98-6.84L102.98 0L86.92 0L86.92 0Q83.69 0 81.65-2.09L81.65-2.09L81.65-2.09Q79.61-4.18 79.61-7.41L79.61-7.41L79.61-40.28L64.79-40.28ZM169.00-24.13L169.00-22.99L169.00-22.99Q169.00-17.10 167.06-12.59L167.06-12.59L167.06-12.59Q165.11-8.07 161.88-4.99L161.88-4.99L161.88-4.99Q158.65-1.90 154.33-0.29L154.33-0.29L154.33-0.29Q150.00 1.33 145.35 1.33L145.35 1.33L145.35 1.33Q140.60 1.33 136.32-0.29L136.32-0.29L136.32-0.29Q132.05-1.90 128.82-4.99L128.82-4.99L128.82-4.99Q125.59-8.07 123.64-12.59L123.64-12.59L123.64-12.59Q121.70-17.10 121.70-22.99L121.70-22.99L121.70-24.13L121.70-24.13Q121.70-29.93 123.64-34.44L123.64-34.44L123.64-34.44Q125.59-38.95 128.87-42.09L128.87-42.09L128.87-42.09Q132.15-45.22 136.42-46.84L136.42-46.84L136.42-46.84Q140.69-48.45 145.35-48.45L145.35-48.45L145.35-48.45Q150.00-48.45 154.28-46.84L154.28-46.84L154.28-46.84Q158.56-45.22 161.83-42.09L161.83-42.09L161.83-42.09Q165.11-38.95 167.06-34.44L167.06-34.44L167.06-34.44Q169.00-29.93 169.00-24.13L169.00-24.13ZM145.35-5.70L145.35-5.70L145.35-5.70Q148.77-5.70 151.67-6.89L151.67-6.89L151.67-6.89Q154.56-8.07 156.75-10.36L156.75-10.36L156.75-10.36Q158.94-12.63 160.17-15.82L160.17-15.82L160.17-15.82Q161.41-19 161.41-22.99L161.41-22.99L161.41-24.13L161.41-24.13Q161.41-27.93 160.17-31.11L160.17-31.11L160.17-31.11Q158.94-34.30 156.75-36.58L156.75-36.58L156.75-36.58Q154.56-38.86 151.62-40.14L151.62-40.14L151.62-40.14Q148.68-41.42 145.35-41.42L145.35-41.42L145.35-41.42Q142.03-41.42 139.08-40.14L139.08-40.14L139.08-40.14Q136.13-38.86 133.95-36.58L133.95-36.58L133.95-36.58Q131.76-34.30 130.53-31.11L130.53-31.11L130.53-31.11Q129.30-27.93 129.30-24.13L129.30-24.13L129.30-22.99L129.30-22.99Q129.30-19 130.53-15.82L130.53-15.82L130.53-15.82Q131.76-12.63 133.95-10.36L133.95-10.36L133.95-10.36Q136.13-8.07 139.03-6.89L139.03-6.89L139.03-6.89Q141.93-5.70 145.35-5.70ZM190.10-24.51L190.10 0L182.69 0L182.69-47.12L190.10-47.12L190.10-39.14L191.24-39.14L191.24-39.14Q195.61-48.45 206.44-48.45L206.44-48.45L206.44-48.45Q214.61-48.45 219.45-43.37L219.45-43.37L219.45-43.37Q224.30-38.29 224.30-28.12L224.30-28.12L224.30 0L216.89 0L216.89-26.60L216.89-26.60Q216.89-34.01 213.56-37.72L213.56-37.72L213.56-37.72Q210.24-41.42 204.54-41.42L204.54-41.42L204.54-41.42Q197.79-41.42 193.94-36.81L193.94-36.81L193.94-36.81Q190.10-32.20 190.10-24.51L190.10-24.51ZM252.99-66.50L252.99-27.55L254.60-27.55L272.56-47.12L281.68-47.12L281.68-46.55L262.11-24.98L262.11-23.27L283.95-0.57L283.95 0L274.83 0L254.79-20.71L252.99-20.71L252.99 0L245.57 0L245.57-66.50L252.99-66.50ZM308.75-34.96L308.75-34.96L308.75-34.96Q308.75-31.54 311.65-29.73L311.65-29.73L311.65-29.73Q314.54-27.93 322.24-27.36L322.24-27.36L322.24-27.36Q330.50-26.70 334.83-23.42L334.83-23.42L334.83-23.42Q339.15-20.14 339.15-13.87L339.15-13.87L339.15-13.30L339.15-13.30Q339.15-9.88 337.77-7.17L337.77-7.17L337.77-7.17Q336.39-4.46 333.97-2.56L333.97-2.56L333.97-2.56Q331.55-0.67 328.08 0.33L328.08 0.33L328.08 0.33Q324.62 1.33 320.53 1.33L320.53 1.33L320.53 1.33Q315.02 1.33 311.08-0.14L311.08-0.14L311.08-0.14Q307.13-1.61 304.52-4.04L304.52-4.04L304.52-4.04Q301.91-6.46 300.58-9.55L300.58-9.55L300.58-9.55Q299.25-12.63 299.06-15.77L299.06-15.77L306.09-17.48L306.09-17.48Q306.56-12.06 310.27-8.79L310.27-8.79L310.27-8.79Q313.97-5.51 320.15-5.51L320.15-5.51L320.15-5.51Q325.38-5.51 328.56-7.55L328.56-7.55L328.56-7.55Q331.74-9.60 331.74-13.30L331.74-13.30L331.74-13.30Q331.74-17.29 328.61-19L328.61-19L328.61-19Q325.47-20.71 318.44-21.18L318.44-21.18L318.44-21.18Q310.27-21.75 305.90-24.98L305.90-24.98L305.90-24.98Q301.53-28.21 301.53-34.39L301.53-34.39L301.53-34.96L301.53-34.96Q301.53-38.29 302.95-40.80L302.95-40.80L302.95-40.80Q304.38-43.32 306.80-45.03L306.80-45.03L306.80-45.03Q309.22-46.74 312.26-47.59L312.26-47.59L312.26-47.59Q315.31-48.45 318.63-48.45L318.63-48.45L318.63-48.45Q323.28-48.45 326.80-47.17L326.80-47.17L326.80-47.17Q330.31-45.88 332.69-43.84L332.69-43.84L332.69-43.84Q335.06-41.80 336.35-39.14L336.35-39.14L336.35-39.14Q337.63-36.48 338.01-33.82L338.01-33.82L330.98-32.11L330.98-32.11Q330.50-36.67 327.32-39.23L327.32-39.23L327.32-39.23Q324.14-41.80 319.01-41.80L319.01-41.80L319.01-41.80Q317.01-41.80 315.16-41.37L315.16-41.37L315.16-41.37Q313.31-40.95 311.88-40.09L311.88-40.09L311.88-40.09Q310.46-39.23 309.61-37.95L309.61-37.95L309.61-37.95Q308.75-36.67 308.75-34.96Z" fill="url(#editing-gradient-gradient)"></path></g></g><style>text {
  font-size: 64px;
  font-family: Arial Black;
  dominant-baseline: central;
  text-anchor: middle;
}</style></svg>